# xmcd
#
# Track frame offsets:
#	150
#	1145
#	9280
#	24890
#	38415
#	50377
#	67705
#	76340
#	88740
#	108460
#	124185
#	142642
#	152397
#	169855
#	175642
#	187877
#	192580
#	208425
#	221447
#	230100
#	252365
#	266627
#	282250
#	299720
#	307362
#
# Disc length: 4286 seconds
#
# Revision: 6
# Processed by: cddbd v1.4PL0 Copyright (c) Steve Scherf et al.
# Submitted via: MusicWizard 6.0.0
#
DISCID=5710bc19
DTITLE=Various Artist - Wo Ist Zu Hause, Mama?
DYEAR=1995
DGENRE=Country
TTITLE0=F.S.K. - Intro
TTITLE1=Jonny Cash - Wo Ist Zuhause, Mama ?
TTITLE2=Die Sterne - Es Moechte Echt Sein
TTITLE3=F.S.K. - Diesel Oktoberfest
TTITLE4=Fleischlego - Was Solln Wir Tun, Batman
TTITLE5=Element Of Crime - Immer Unter Strom
TTITLE6=Die Braut Haut Ins Auge - Warum Nicht
TTITLE7=Saal 8 - Coco
TTITLE8=Danny Dziuk - Maenner Unter Sich
TTITLE9=Die Nuts - Aus Einer Heiligen Stadt
TTITLE10=Flowerpornoes - Titelstory Gegen Ganzseitige Anzeigen
TTITLE11=No Goods - Wilder Westen
TTITLE12=Tub On A Truck - Letzte Wache
TTITLE13=The Blech - So Viel Geliebt
TTITLE14=Fanny Van Dammen - Nana Mouskouri
TTITLE15=Lassie Singers - Das Letzte Biest Am Himmel
TTITLE16=Die Radierer - Alle Frauen Sind Huren
TTITLE17=Trinkende Jugend - Hamburg Lied
TTITLE18=Die Regierung - Charlotte
TTITLE19=Mastino - Sterne
TTITLE20=Dildo Took A Taxi - Alles Wegen Dir
TTITLE21=Checkpoint Charlie - Er Faehrt Nicht Nach Thailand
TTITLE22=Motion - Warten
TTITLE23=Bernd Begemann - Huebscher Als Sonst
TTITLE24=Wiglaf Droste - Mach Den Kopf Zu
EXTD=(c)1995 Trikont Germany
EXTT0=
EXTT1=
EXTT2=
EXTT3=
EXTT4=
EXTT5=
EXTT6=
EXTT7=
EXTT8=
EXTT9=
EXTT10=
EXTT11=
EXTT12=
EXTT13=
EXTT14=
EXTT15=
EXTT16=
EXTT17=
EXTT18=
EXTT19=
EXTT20=
EXTT21=
EXTT22=
EXTT23=
EXTT24=
PLAYORDER=
